<svg xmlns="http://www.w3.org/2000/svg" xmlns:xlink="http://www.w3.org/1999/xlink" viewBox="0,0,256,256" width="30px" height="30px"><g fill="#ff330a" fill-rule="nonzero" stroke="none" stroke-width="1" stroke-linecap="butt" stroke-linejoin="miter" stroke-miterlimit="10" stroke-dasharray="" stroke-dashoffset="0" font-family="none" font-weight="none" font-size="none" text-anchor="none" style="mix-blend-mode: normal"><g transform="scale(5.12,5.12)"><path d="M13,2c-0.553,0 -1,0.448 -1,1v44c0,0.358 0.19095,0.68919 0.50195,0.86719c0.311,0.178 0.69295,0.17609 1.00195,-0.00391l11.49609,-6.70508l11.49609,6.70508c0.155,0.091 0.32991,0.13672 0.50391,0.13672c0.172,0 0.34405,-0.04381 0.49805,-0.13281c0.311,-0.178 0.50195,-0.50919 0.50195,-0.86719v-13.83203l-2,1.2793v10.8125l-10.49609,-6.12305c-0.155,-0.091 -0.32991,-0.13672 -0.50391,-0.13672c-0.174,0 -0.34891,0.04572 -0.50391,0.13672l-10.49609,6.12305v-41.25977h22v9.20508l0.3457,-0.90625l0.30273,-0.30273c0.22,-0.22 0.70052,-0.63091 1.35352,-0.87891v-8.11719c0,-0.552 -0.447,-1 -1,-1zM39.0625,12.91016c-0.4,0 -0.8,0.3 -1,0.5l-2.40039,6.30078l-6.69922,0.40039c-0.4,0 -0.80039,0.29922 -0.90039,0.69922c-0.1,0.4 0.00039,0.89961 0.40039,1.09961l5.09961,4.20117l-1.70117,6.5c-0.1,0.4 0.10039,0.89961 0.40039,1.09961c0.2,0.1 0.39961,0.19922 0.59961,0.19922c0.201,0 0.40256,-0.09922 0.60156,-0.19922l5.59961,-3.59961l5.59961,3.69922c0.3,0.3 0.79961,0.2 1.09961,0c0.4,-0.3 0.50039,-0.69961 0.40039,-1.09961l-1.69922,-6.5l5.19922,-4.19922c0.3,-0.3 0.40078,-0.70156 0.30078,-1.10156c-0.1,-0.4 -0.50039,-0.69922 -0.90039,-0.69922l-6.70117,-0.40039l-2.39844,-6.29883c-0.1,-0.3 -0.50039,-0.60156 -0.90039,-0.60156zM39.0625,16.71094l1.59961,4.5c0.2,0.3 0.50039,0.59961 0.90039,0.59961l4.80078,0.30078l-3.70117,3c-0.3,0.2 -0.39883,0.6 -0.29883,1l1.19922,4.59961l-4,-2.59961c-0.1,-0.1 -0.3,-0.20117 -0.5,-0.20117c-0.201,0 -0.39961,0.10156 -0.59961,0.10156l-4,2.59961l1.19922,-4.59961c0.1,-0.3 0.00117,-0.8 -0.29883,-1l-3.70117,-3l4.80078,-0.20117c0.4,-0.1 0.70039,-0.29922 0.90039,-0.69922z"></path></g></g></svg>